# xmcd CD database file generated by Grip 2.92
# 
# Track frame offsets:
#       182
#       20912
#       33317
#       45857
#       56700
#       70660
#       86897
#       94545
#       103977
#       116810
#       133867
#       150022
#       164817
#       178340
#       195842
#       207390
#       217360
#       238955
#       251835
#       270257
#       276127
# 
# Disc length: 3761 seconds
# 
# Revision: 3
# Processed by: cddbd v1.4b41PL1 Copyright (c) Steve Scherf et al.
# Submitted via: Grip 2.92
# 
DISCID=3c0eaf15
DTITLE=Memphis Slim - Memphis blues
DYEAR=1900
DGENRE=
TTITLE0=That's where I'm coming from
TTITLE1=Call me the Boogie Man
TTITLE2=1040 Form Blues
TTITLE3=You'll soon be singing the Blues
TTITLE4=He flew the coop
TTITLE5=Going back to Memphis
TTITLE6=Do you think I've got the Blues ?
TTITLE7=Fore day train
TTITLE8=Shaking that thing
TTITLE9=Early in the morning
TTITLE10=Memphis Blues
TTITLE11=Fip, fil and fim
TTITLE12=Christina
TTITLE13=Zorba the Freak
TTITLE14=Movin'on
TTITLE15=Down in Alabama
TTITLE16=Keep the Blues alive
TTITLE17=Violin Boogie
TTITLE18=Sassy mae
TTITLE19=All by myself
TTITLE20=Bye bye bye Blues
EXTD=
EXTT0=
EXTT1=
EXTT2=
EXTT3=
EXTT4=
EXTT5=
EXTT6=
EXTT7=
EXTT8=
EXTT9=
EXTT10=
EXTT11=
EXTT12=
EXTT13=
EXTT14=
EXTT15=
EXTT16=
EXTT17=
EXTT18=
EXTT19=
EXTT20=
PLAYORDER=
